<svg width="180" height="55" viewBox="0 0 180 55" fill="none" xmlns="http://www.w3.org/2000/svg">
<rect width="180" height="55" fill="#F73859"/>
<path d="M27.84 43.4C25.7333 43.4 24.12 42.8 23 41.6C21.9067 40.4 21.36 38.7067 21.36 36.52V21.48C21.36 19.2933 21.9067 17.6 23 16.4C24.12 15.2 25.7333 14.6 27.84 14.6C29.9467 14.6 31.5467 15.2 32.64 16.4C33.76 17.6 34.32 19.2933 34.32 21.48V24.44H30.16V21.2C30.16 19.4667 29.4267 18.6 27.96 18.6C26.4933 18.6 25.76 19.4667 25.76 21.2V36.84C25.76 38.5467 26.4933 39.4 27.96 39.4C29.4267 39.4 30.16 38.5467 30.16 36.84V32.56H34.32V36.52C34.32 38.7067 33.76 40.4 32.64 41.6C31.5467 42.8 29.9467 43.4 27.84 43.4ZM36.9525 15H41.3525V26.4H46.0725V15H50.4725V43H46.0725V30.4H41.3525V43H36.9525V15ZM53.7494 15H58.1494V43H53.7494V15ZM64.8847 19H60.2847V15H73.8847V19H69.2847V43H64.8847V19ZM77.5791 15H83.5391L88.0991 43H83.6991L82.8991 37.44V37.52H77.8991L77.0991 43H73.0191L77.5791 15ZM82.3791 33.72L80.4191 19.88H80.3391L78.4191 33.72H82.3791ZM91.8378 19H87.2378V15H100.838V19H96.2378V43H91.8378V19ZM102.968 15H109.488C111.755 15 113.408 15.5333 114.448 16.6C115.488 17.64 116.008 19.2533 116.008 21.44V23.16C116.008 26.0667 115.048 27.9067 113.128 28.68V28.76C114.195 29.08 114.941 29.7333 115.368 30.72C115.821 31.7067 116.048 33.0267 116.048 34.68V39.6C116.048 40.4 116.075 41.0533 116.128 41.56C116.181 42.04 116.315 42.52 116.528 43H112.048C111.888 42.5467 111.781 42.12 111.728 41.72C111.675 41.32 111.648 40.6 111.648 39.56V34.44C111.648 33.16 111.435 32.2667 111.008 31.76C110.608 31.2533 109.901 31 108.888 31H107.368V43H102.968V15ZM108.968 27C109.848 27 110.501 26.7733 110.928 26.32C111.381 25.8667 111.608 25.1067 111.608 24.04V21.88C111.608 20.8667 111.421 20.1333 111.048 19.68C110.701 19.2267 110.141 19 109.368 19H107.368V27H108.968ZM122.501 15H128.461L133.021 43H128.621L127.821 37.44V37.52H122.821L122.021 43H117.941L122.501 15ZM127.301 33.72L125.341 19.88H125.261L123.341 33.72H127.301ZM135.156 15H139.556V43H135.156V15ZM142.851 15H148.371L152.651 31.76H152.731V15H156.651V43H152.131L146.851 22.56H146.771V43H142.851V15Z" fill="#283149"/>
</svg>
